<svg width="19" height="18" viewBox="0 0 19 18" fill="none" xmlns="http://www.w3.org/2000/svg">
<path d="M7.89178 17.1486L7.73756 17.0154L0.402718 9.6806L0.256419 9.50834C-0.0898716 9.02539 -0.0854274 8.36856 0.269723 7.89009L0.402903 7.73587L7.73904 0.402543L7.89328 0.269441C8.43164 -0.129857 9.19552 -0.0853356 9.68358 0.402913C10.1716 0.891162 10.2159 1.65505 9.81637 2.19326L9.68321 2.34746L4.69612 7.33484L16.9611 7.33484L17.1477 7.34739C17.7578 7.43016 18.2408 7.91314 18.3236 8.52326L18.3361 8.70984L18.3236 8.89642C18.2408 9.50655 17.7578 9.98952 17.1477 10.0723L16.9611 10.0848L4.69612 10.0848L9.6821 15.0709L9.82838 15.2431C10.1746 15.726 10.1703 16.3828 9.81524 16.8612L9.6821 17.0154L9.50986 17.1617C9.02698 17.508 8.37025 17.5036 7.89178 17.1486Z" fill="#404040"/>
</svg>
