<svg width="19" height="18" viewBox="0 0 19 18" fill="none" xmlns="http://www.w3.org/2000/svg">
<path d="M10.4443 0.269595L10.5986 0.402727L17.9334 7.73757L18.0797 7.90984C18.426 8.39278 18.4215 9.04961 18.0664 9.52809L17.9332 9.6823L10.5971 17.0156L10.4428 17.1487C9.90448 17.548 9.1406 17.5035 8.65254 17.0153C8.16448 16.527 8.12025 15.7631 8.51975 15.2249L8.65291 15.0707L13.64 10.0833H1.375L1.18842 10.0708C0.578295 9.98801 0.095322 9.50504 0.0125513 8.89491L0 8.70833L0.0125513 8.52175C0.095322 7.91163 0.578295 7.42866 1.18842 7.34589L1.375 7.33333H13.64L8.65402 2.34727L8.50774 2.17503C8.16148 1.69215 8.16586 1.03542 8.52089 0.556945L8.65402 0.402727L8.82626 0.256446C9.30914 -0.0898103 9.96587 -0.085427 10.4443 0.269595Z" fill="#292929"/>
</svg>
