<svg width="23" height="23" viewBox="0 0 23 23" fill="none" xmlns="http://www.w3.org/2000/svg">
<path d="M0.399054 0.637401L0.512563 0.512563C1.15578 -0.130653 2.17513 -0.16849 2.8626 0.399054L2.98744 0.512563L11.25 8.775L19.5126 0.512563C20.196 -0.170854 21.304 -0.170854 21.9874 0.512563C22.6709 1.19598 22.6709 2.30402 21.9874 2.98744L13.725 11.25L21.9874 19.5126C22.6307 20.1558 22.6685 21.1751 22.1009 21.8626L21.9874 21.9874C21.3442 22.6307 20.3249 22.6685 19.6374 22.1009L19.5126 21.9874L11.25 13.725L2.98744 21.9874C2.30402 22.6709 1.19598 22.6709 0.512563 21.9874C-0.170854 21.304 -0.170854 20.196 0.512563 19.5126L8.775 11.25L0.512563 2.98744C-0.130653 2.34422 -0.16849 1.32487 0.399054 0.637401L0.512563 0.512563L0.399054 0.637401Z" fill="white"/>
</svg>
